<?xml version="1.0" encoding="UTF-8"?>
<svg id="_圖層_1" data-name="圖層 1" xmlns="http://www.w3.org/2000/svg" viewBox="0 0 84.44 12.77">
  <defs>
    <style>
      .cls-1 {
        fill: #231815;
      }
    </style>
  </defs>
  <path class="cls-1" d="M61.35,3.54c-1.05,2.57-1.67,4.25-1.96,5.05-.32-.82-1.09-2.64-2.14-5.05l-.03-.07h-1.49l2.92,6.58c-.56,1.2-.87,1.48-1.6,1.48-.16,0-.44-.02-.67-.05l-.14-.02v1.23l.1.02c.22.04.59.07.82.07,1.63,0,2.05-.61,3.13-3.24l2.51-6.07h-1.42l-.03.08Z"/>
  <path class="cls-1" d="M53.19,5.09c.83-.28,1.58-.88,1.58-1.85,0-1.46-1.44-2.29-3.95-2.29h-5.46v8.94h5.6c1.98,0,4.3-.69,4.3-2.65,0-1.32-1.22-1.9-2.07-2.14ZM50.46,4.59h-3.53v-2.58h3.65c1.16,0,2.55.22,2.55,1.29,0,.86-.9,1.29-2.67,1.29ZM46.93,5.66h3.45c2.08,0,3.23.57,3.23,1.6,0,1.36-1.86,1.56-2.96,1.56h-3.71v-3.16Z"/>
  <path class="cls-1" d="M30.82,5.09c.83-.28,1.58-.88,1.58-1.85,0-1.46-1.44-2.29-3.95-2.29h-5.46v8.94h5.6c1.98,0,4.3-.69,4.3-2.65,0-1.32-1.22-1.9-2.07-2.14ZM28.09,4.59h-3.53v-2.58h3.65c1.16,0,2.55.22,2.55,1.29,0,.86-.9,1.29-2.67,1.29ZM24.57,5.66h3.45c2.08,0,3.23.57,3.23,1.6,0,1.36-1.86,1.56-2.96,1.56h-3.71v-3.16Z"/>
  <rect class="cls-1" x="34.31" y="3.47" width="1.5" height="6.41"/>
  <rect class="cls-1" x="34.31" y=".44" width="1.5" height="1.57"/>
  <path class="cls-1" d="M39.45,1.47h-1.5v2h-.86v.98h.86v3.67c0,1.29.65,1.82,2.24,1.82.43,0,.86,0,1.23-.11l.09-.03v-.94l-.15.03c-.24.05-.59.06-.84.06-.9,0-1.07-.32-1.07-.95v-3.52h2.24v-1h-2.24V1.47Z"/>
  <path class="cls-1" d="M73.58,5.09c.83-.28,1.58-.88,1.58-1.85,0-1.46-1.44-2.29-3.95-2.29h-5.46v8.94h5.6c1.98,0,4.3-.69,4.3-2.65,0-1.32-1.22-1.9-2.07-2.14ZM74,7.25c0,1.36-1.86,1.56-2.96,1.56h-3.71v-3.16h3.45c2.08,0,3.23.57,3.23,1.6ZM67.32,4.59v-2.58h3.65c1.16,0,2.55.22,2.55,1.29,0,.86-.9,1.29-2.67,1.29h-3.53Z"/>
  <rect class="cls-1" x="77.06" y=".44" width="1.5" height="1.57"/>
  <rect class="cls-1" x="77.06" y="3.47" width="1.5" height="6.41"/>
  <path class="cls-1" d="M84.44,4.48v-1h-2.24V1.47h-1.51v2h-.86v.98h.86v3.67c0,1.29.65,1.82,2.24,1.82.43,0,.86,0,1.23-.11l.09-.03v-.94l-.15.03c-.24.05-.59.06-.84.06-.9,0-1.07-.32-1.07-.95v-3.52h2.24Z"/>
  <path class="cls-1" d="M10.22,0c-2.13,0-3.86,1.73-3.86,3.86v6.09c0,.92.74,1.66,1.66,1.66h2.2c2.13,0,3.86-1.73,3.86-3.86v-3.89c0-2.13-1.73-3.86-3.86-3.86Z"/>
  <path class="cls-1" d="M5.45,6.88c0-1.51-1.22-2.73-2.73-2.73S0,5.37,0,6.88v2.01c0,1.51,1.22,2.73,2.73,2.73h2.72s.63,0,.63,0c-.36-.42-.59-.95-.63-1.53v-3.21Z"/>
</svg>