<?xml version="1.0" encoding="UTF-8"?>
<svg id="_圖層_1" data-name="圖層 1" xmlns="http://www.w3.org/2000/svg" viewBox="0 0 45.36 6.86">
  <defs>
    <style>
      .cls-1 {
        fill: #231815;
      }
    </style>
  </defs>
  <path class="cls-1" d="M32.96,1.9c-.56,1.38-.9,2.28-1.05,2.71-.17-.44-.59-1.42-1.15-2.71l-.02-.04h-.8l1.57,3.54c-.3.65-.47.8-.86.8-.08,0-.24,0-.36-.03h-.08s0,.65,0,.65h.05c.12.03.32.05.44.05.87,0,1.1-.33,1.68-1.74l1.35-3.26h-.76l-.02.04Z"/>
  <path class="cls-1" d="M28.57,2.73c.45-.15.85-.47.85-1,0-.78-.77-1.23-2.12-1.23h-2.93v4.8h3.01c1.06,0,2.31-.37,2.31-1.43,0-.71-.65-1.02-1.11-1.15ZM27.11,2.47h-1.89v-1.39h1.96c.62,0,1.37.12,1.37.69,0,.46-.48.69-1.43.69ZM25.21,3.04h1.85c1.12,0,1.73.3,1.73.86,0,.73-1,.84-1.59.84h-1.99v-1.7Z"/>
  <path class="cls-1" d="M16.56,2.73c.45-.15.85-.47.85-1,0-.78-.77-1.23-2.12-1.23h-2.93v4.8h3.01c1.06,0,2.31-.37,2.31-1.43,0-.71-.65-1.02-1.11-1.15ZM15.09,2.47h-1.9v-1.39h1.96c.62,0,1.37.12,1.37.69,0,.46-.48.69-1.43.69ZM13.2,3.04h1.85c1.12,0,1.73.3,1.73.86,0,.73-1,.84-1.59.84h-1.99v-1.7Z"/>
  <rect class="cls-1" x="18.43" y="1.87" width=".81" height="3.44"/>
  <rect class="cls-1" x="18.43" y=".24" width=".81" height=".85"/>
  <path class="cls-1" d="M21.19.79h-.81v1.08h-.46v.53h.46v1.97c0,.7.35.98,1.2.98.23,0,.46,0,.66-.06h.05v-.52h-.08c-.13.04-.32.05-.45.05-.49,0-.57-.17-.57-.51v-1.89h1.2v-.54h-1.2V.79Z"/>
  <path class="cls-1" d="M39.53,2.73c.45-.15.85-.47.85-1,0-.78-.77-1.23-2.12-1.23h-2.93v4.8h3.01c1.06,0,2.31-.37,2.31-1.43,0-.71-.65-1.02-1.11-1.15ZM39.75,3.9c0,.73-1,.84-1.59.84h-1.99v-1.7h1.85c1.12,0,1.73.3,1.73.86ZM36.17,2.47v-1.39h1.96c.62,0,1.37.12,1.37.69,0,.46-.48.69-1.43.69h-1.9Z"/>
  <rect class="cls-1" x="41.4" y=".24" width=".81" height=".85"/>
  <rect class="cls-1" x="41.4" y="1.87" width=".81" height="3.44"/>
  <path class="cls-1" d="M45.36,2.4v-.54h-1.2V.79h-.81v1.08h-.46v.53h.46v1.97c0,.7.35.98,1.2.98.23,0,.46,0,.66-.06h.05v-.52h-.08c-.13.04-.32.05-.45.05-.49,0-.57-.17-.57-.51v-1.89h1.2Z"/>
  <path class="cls-1" d="M5.49,0c-1.15,0-2.07.93-2.07,2.07v3.27c0,.49.4.89.89.89h1.18c1.15,0,2.07-.93,2.07-2.07v-2.09c0-1.15-.93-2.07-2.07-2.07Z"/>
  <path class="cls-1" d="M2.93,3.69c0-.81-.66-1.46-1.46-1.46s-1.46.66-1.46,1.46v1.08c0,.81.66,1.46,1.46,1.46h1.46s.34,0,.34,0c-.19-.22-.32-.51-.34-.82v-1.73Z"/>
</svg>